HIERARCHY
ROOT hip
{
  OFFSET 0 0 0
  CHANNELS 6 Xposition Yposition Zposition Zrotation Yrotation Xrotation
  JOINT abdomen
  {
    OFFSET 0 20.6881 -0.73152
    CHANNELS 3 Zrotation Xrotation Yrotation
    JOINT chest
    {
      OFFSET 0 11.7043 -0.48768
      CHANNELS 3 Zrotation Xrotation Yrotation
      JOINT neck
      {
        OFFSET 0 22.1894 -2.19456
        CHANNELS 3 Zrotation Xrotation Yrotation
        JOINT head
        {
          OFFSET -0.24384 7.07133 1.2192
          CHANNELS 3 Zrotation Xrotation Yrotation
          JOINT leftEye
          {
            OFFSET 4.14528 8.04674 8.04672
            CHANNELS 3 Zrotation Xrotation Yrotation
            End Site
            {
              OFFSET 1 0 0
            }
          }
          JOINT rightEye
          {
            OFFSET -3.6576 8.04674 8.04672
            CHANNELS 3 Zrotation Xrotation Yrotation
            End Site
            {
              OFFSET 1 0 0
            }
          }
        }
      }
      JOINT rCollar
      {
        OFFSET -2.68224 19.2634 -4.8768
        CHANNELS 3 Zrotation Xrotation Yrotation
        JOINT rShldr
        {
          OFFSET -8.77824 -1.95073 1.46304
          CHANNELS 3 Zrotation Xrotation Yrotation
          JOINT rForeArm
          {
            OFFSET -28.1742 -1.7115 0.48768
            CHANNELS 3 Zrotation Xrotation Yrotation
            JOINT rHand
            {
              OFFSET -22.5879 0.773209 7.07136
              CHANNELS 3 Zrotation Xrotation Yrotation
              JOINT rThumb1
              {
                OFFSET -1.2192 -0.487915 3.41376
                CHANNELS 3 Zrotation Xrotation Yrotation
                JOINT rThumb2
                {
                  OFFSET -3.37035 -0.52449 3.41376
                  CHANNELS 3 Zrotation Xrotation Yrotation
                  End Site
                  {
                    OFFSET -1.78271 -1.18214 1.43049
                  }
                }
              }
              JOINT rIndex1
              {
                OFFSET -7.75947 0.938293 5.60832
                CHANNELS 3 Zrotation Xrotation Yrotation
                JOINT rIndex2
                {
                  OFFSET -2.54057 -0.884171 1.56538
                  CHANNELS 3 Zrotation Xrotation Yrotation
                  End Site
                  {
                    OFFSET -1.62519 -0.234802 1.16502
                  }
                }
              }
              JOINT rMid1
              {
                OFFSET -8.24714 1.18213 3.41376
                CHANNELS 3 Zrotation Xrotation Yrotation
                JOINT rMid2
                {
                  OFFSET -3.10165 -0.590103 1.0647
                  CHANNELS 3 Zrotation Xrotation Yrotation
                  End Site
                  {
                    OFFSET -2.48547 -0.328903 0.83742
                  }
                }
              }
              JOINT rRing1
              {
                OFFSET -8.82822 0.546677 1.51678
                CHANNELS 3 Zrotation Xrotation Yrotation
                JOINT rRing2
                {
                  OFFSET -2.60934 -0.819778 -0.0198488
                  CHANNELS 3 Zrotation Xrotation Yrotation
                  End Site
                  {
                    OFFSET -2.33842 -0.294052 0.168128
                  }
                }
              }
              JOINT rPinky1
              {
                OFFSET -8.27202 -0.0477905 -0.4584
                CHANNELS 3 Zrotation Xrotation Yrotation
                JOINT rPinky2
                {
                  OFFSET -1.82734 -0.647385 -0.700984
                  CHANNELS 3 Zrotation Xrotation Yrotation
                  End Site
                  {
                    OFFSET -1.69225 -0.51767 -0.607171
                  }
                }
              }
            }
          }
        }
      }
      JOINT lCollar
      {
        OFFSET 2.68224 19.2634 -4.8768
        CHANNELS 3 Zrotation Xrotation Yrotation
        JOINT lShldr
        {
          OFFSET 8.77824 -1.95073 1.46304
          CHANNELS 3 Zrotation Xrotation Yrotation
          JOINT lForeArm
          {
            OFFSET 28.1742 -1.7115 0.48768
            CHANNELS 3 Zrotation Xrotation Yrotation
            JOINT lHand
            {
              OFFSET 22.5879 0.773209 7.07136
              CHANNELS 3 Zrotation Xrotation Yrotation
              JOINT lThumb1
              {
                OFFSET 1.2192 -0.487915 3.41376
                CHANNELS 3 Zrotation Xrotation Yrotation
                JOINT lThumb2
                {
                  OFFSET 3.37035 -0.52449 3.41376
                  CHANNELS 3 Zrotation Xrotation Yrotation
                  End Site
                  {
                    OFFSET 1.78271 -1.18214 1.43049
                  }
                }
              }
              JOINT lIndex1
              {
                OFFSET 7.75947 0.938293 5.60832
                CHANNELS 3 Zrotation Xrotation Yrotation
                JOINT lIndex2
                {
                  OFFSET 2.54057 -0.884171 1.56538
                  CHANNELS 3 Zrotation Xrotation Yrotation
                  End Site
                  {
                    OFFSET 1.62519 -0.234802 1.16502
                  }
                }
              }
              JOINT lMid1
              {
                OFFSET 8.24714 1.18213 3.41376
                CHANNELS 3 Zrotation Xrotation Yrotation
                JOINT lMid2
                {
                  OFFSET 3.10165 -0.590103 1.0647
                  CHANNELS 3 Zrotation Xrotation Yrotation
                  End Site
                  {
                    OFFSET 2.48547 -0.328903 0.83742
                  }
                }
              }
              JOINT lRing1
              {
                OFFSET 8.82822 0.546677 1.51678
                CHANNELS 3 Zrotation Xrotation Yrotation
                JOINT lRing2
                {
                  OFFSET 2.60934 -0.819778 -0.0198488
                  CHANNELS 3 Zrotation Xrotation Yrotation
                  End Site
                  {
                    OFFSET 2.33842 -0.294052 0.168128
                  }
                }
              }
              JOINT lPinky1
              {
                OFFSET 8.27202 -0.0477905 -0.4584
                CHANNELS 3 Zrotation Xrotation Yrotation
                JOINT lPinky2
                {
                  OFFSET 1.82734 -0.647385 -0.700984
                  CHANNELS 3 Zrotation Xrotation Yrotation
                  End Site
                  {
                    OFFSET 1.69225 -0.51767 -0.607171
                  }
                }
              }
            }
          }
        }
      }
    }
  }
  JOINT rButtock
  {
    OFFSET -8.77824 4.35084 1.2192
    CHANNELS 3 Zrotation Xrotation Yrotation
    JOINT rThigh
    {
      OFFSET 0 -1.70687 -2.19456
      CHANNELS 3 Zrotation Xrotation Yrotation
      JOINT rShin
      {
        OFFSET 0 -36.8199 0.73152
        CHANNELS 3 Zrotation Xrotation Yrotation
        JOINT rFoot
        {
          OFFSET 0.73152 -45.1104 -5.12064
          CHANNELS 3 Zrotation Xrotation Yrotation
          End Site
          {
            OFFSET -1.1221 -3.69964 12.103
          }
        }
      }
    }
  }
  JOINT lButtock
  {
    OFFSET 8.77824 4.35084 1.2192
    CHANNELS 3 Zrotation Xrotation Yrotation
    JOINT lThigh
    {
      OFFSET 0 -1.70687 -2.19456
      CHANNELS 3 Zrotation Xrotation Yrotation
      JOINT lShin
      {
        OFFSET 0 -36.8199 0.73152
        CHANNELS 3 Zrotation Xrotation Yrotation
        JOINT lFoot
        {
          OFFSET -0.73152 -45.1104 -5.12064
          CHANNELS 3 Zrotation Xrotation Yrotation
          End Site
          {
            OFFSET 1.1221 -3.69964 12.103
          }
        }
      }
    }
  }
}
MOTION
Frames:	4
Frame Time:	0.00833333
-3.96579 79.8781 -281.874 0.0 0.0 0.0 1.57508 -0.00270754 0.0428973 0.434177 0.00151711 0.0751893 -2.11148e-14 7.95139e-16 3.72721e-16 -6.34682e-14 3.18055e-15 1.11816e-15 -0.0 0.0 0.0 -0.0 0.0 0.0 -1.05372e-14 9.70628e-18 3.47873e-16 -2.20747e-13 5.59082e-17 4.57205e-15 -3.83555e-12 1.14679e-12 1.04958e-13 -4.38275e-11 -1.11849e-12 7.4425e-13 -1.03396e-10 5.98037e-14 1.87017e-12 -1.78568e-10 1.04958e-13 3.22985e-12 -1.0339e-10 6.08281e-14 1.85426e-12 7.73091 5.47488 0.417314 -1.03396e-10 5.92378e-14 1.87335e-12 2.90554 0.965183 0.102902 -1.0339e-10 5.98342e-14 1.86858e-12 10.2786 0.731801 0.0259123 -1.03406e-10 6.40087e-14 1.87653e-12 2.22167 -0.733487 -0.20892 -1.08328e-14 8.54153e-18 4.96962e-17 -2.23868e-13 7.45443e-17 2.98177e-15 -3.82516e-12 -1.14083e-12 1.08139e-13 -4.38406e-11 1.17238e-12 7.66514e-13 -1.03396e-10 6.77058e-14 1.87335e-12 -1.78545e-10 1.145e-13 3.24894e-12 -1.03399e-10 6.83819e-14 1.88925e-12 -7.73091 5.47488 -0.417314 -1.03394e-10 6.70898e-14 1.87653e-12 -2.90554 0.965183 -0.102902 -1.03399e-10 6.75868e-14 1.87732e-12 -10.2786 0.731801 -0.0259123 -1.03392e-10 6.99722e-14 1.87017e-12 -2.22167 -0.733487 0.20892 -2.03217e-16 0.0 -3.88251e-19 1.704 -6.60411 -0.159287 0.0025927 6.39983 0.0734156 -0.527122 0.199674 0.0639845 2.03217e-16 0.0 3.88251e-19 0.691396 -1.9236 0.0055921 0.00918206 -2.07857 0.075786 0.503627 3.99746 -0.139054
-6.48813 77.519 -284.889 -8.2688 -16.8674 15.4246 6.24515 3.85602 1.55002 -0.515461 -2.58445 0.543515 0.158499 -0.915058 0.126551 -2.65006 -5.26892 -0.255439 -0.0 0.0 0.0 -0.0 0.0 0.0 -1.10879e-13 -5.11153e-14 -1.41555e-13 21.4473 9.3796 0.32196 -6.41623 -3.54117 9.25658 0.00364515 1.34436 0.188751 1.26842e-09 -1.19894e-09 6.3051e-10 2.19437e-09 -2.07229e-09 1.0841e-09 1.26842e-09 -1.19894e-09 6.30496e-10 7.73091 5.47488 0.417314 1.26842e-09 -1.19894e-09 6.30512e-10 2.90554 0.965183 0.102902 1.26843e-09 -1.19894e-09 6.30508e-10 10.2786 0.731801 0.0259123 1.26841e-09 -1.19894e-09 6.30514e-10 2.22167 -0.733487 -0.20892 -1.11097e-13 -5.11215e-14 -1.41797e-13 -22.8256 9.38961 -0.104903 7.69353 -4.64502 -10.5151 7.93762e-05 -0.106019 0.014902 1.47725e-09 1.74907e-09 3.19767e-10 2.55437e-09 3.02317e-09 5.52024e-10 1.47725e-09 1.74907e-09 3.19784e-10 -7.73091 5.47488 -0.417314 1.47725e-09 1.74907e-09 3.19768e-10 -2.90554 0.965183 -0.102902 1.47725e-09 1.74907e-09 3.19769e-10 -10.2786 0.731801 -0.0259123 1.47726e-09 1.74907e-09 3.19761e-10 -2.22167 -0.733487 0.20892 -2.03217e-16 0.0 -3.88251e-19 3.55951 -6.44601 -0.948053 0.137933 14.2846 0.426094 -1.22352 -7.53845 -3.32786 2.03217e-16 0.0 3.88251e-19 4.09362 -21.0582 4.05755 -0.0142994 13.6607 -0.140386 0.470671 1.29486 -0.209689
-6.32054 77.1961 -284.111 -8.0262 -17.0745 15.5711 10.955 7.91995 3.14903 -1.46851 -5.32082 1.03718 0.331079 -1.88384 0.258684 -5.51217 -10.8214 -0.536619 -0.0 0.0 0.0 -0.0 0.0 0.0 -2.27525e-13 -1.20951e-13 -2.98497e-13 43.9996 19.2057 0.65389 -11.9147 -6.92121 19.0846 -0.00218172 2.77894 0.390526 2.84512e-09 -2.64044e-09 1.31964e-09 4.92173e-09 -4.56381e-09 2.26882e-09 2.84512e-09 -2.64044e-09 1.31963e-09 7.73091 5.47488 0.417314 2.84512e-09 -2.64044e-09 1.31964e-09 2.90554 0.965183 0.102902 2.84513e-09 -2.64044e-09 1.31964e-09 10.2786 0.731801 0.0259123 2.84511e-09 -2.64044e-09 1.31964e-09 2.22167 -0.733487 -0.20892 -2.27657e-13 -1.20962e-13 -2.98677e-13 -46.9192 19.2964 -0.262813 13.9498 -8.97957 -21.7897 0.000289044 -0.192241 0.0270231 3.24768e-09 3.77235e-09 7.33431e-10 5.61511e-09 6.51997e-09 1.2662e-09 3.24767e-09 3.77235e-09 7.33448e-10 -7.73091 5.47488 -0.417314 3.24768e-09 3.77235e-09 7.33429e-10 -2.90554 0.965183 -0.102902 3.24768e-09 3.77235e-09 7.33431e-10 -10.2786 0.731801 -0.0259123 3.24769e-09 3.77235e-09 7.33423e-10 -2.22167 -0.733487 0.20892 -2.03217e-16 0.0 -3.88251e-19 5.53761 -6.31592 -1.7859 0.166502 22.6254 0.835846 -3.00684 -15.5994 -7.18163 2.03217e-16 0.0 3.88251e-19 11.4718 -40.8721 10.2861 0.10575 30.2259 -0.416547 0.429423 -1.58022 -0.280077
-6.43659 76.8385 -283.342 -8.4756 -17.4198 15.8007 14.9663 11.5406 4.6479 -2.2869 -7.75413 1.49215 0.487636 -2.74512 0.380042 -8.09584 -15.8055 -0.793066 -0.0 0.0 0.0 -0.0 0.0 0.0 -3.11562e-13 -1.53365e-13 -4.25362e-13 63.9897 28.135 1.08067 -15.9264 -9.51609 28.1371 -0.0156928 4.03289 0.567503 4.01205e-09 -3.59694e-09 1.88779e-09 6.94026e-09 -6.21707e-09 3.24584e-09 4.01205e-09 -3.59694e-09 1.88778e-09 7.73091 5.47488 0.417314 4.01205e-09 -3.59694e-09 1.88779e-09 2.90554 0.965183 0.102902 4.01206e-09 -3.59694e-09 1.88779e-09 10.2786 0.731801 0.0259123 4.01205e-09 -3.59694e-09 1.88779e-09 2.22167 -0.733487 -0.20892 -3.11624e-13 -1.53382e-13 -4.2549e-13 -68.362 28.1684 -0.352207 18.1604 -12.0572 -32.2341 0.000403577 -0.318058 0.0447065 4.63855e-09 5.24706e-09 9.55555e-10 8.0202e-09 9.06929e-09 1.64957e-09 4.63854e-09 5.24707e-09 9.55572e-10 -7.73091 5.47488 -0.417314 4.63855e-09 5.24706e-09 9.5555e-10 -2.90554 0.965183 -0.102902 4.63855e-09 5.24706e-09 9.55553e-10 -10.2786 0.731801 -0.0259123 4.63856e-09 5.24706e-09 9.55544e-10 -2.22167 -0.733487 0.20892 -2.03217e-16 0.0 -3.88251e-19 7.28366 -6.12648 -2.52414 0.0753606 30.0491 1.26256 -5.54234 -22.6807 -10.8752 2.03217e-16 0.0 3.88251e-19 24.9698 -57.6233 21.5575 0.408193 45.1366 -0.794882 0.384673 -4.11026 -0.352382
